<?xml version="1.0" encoding="UTF-8" standalone="no"?>
<!-- Created with Inkscape (http://www.inkscape.org/) -->

<svg
   width="210mm"
   height="297mm"
   viewBox="0 0 210 297"
   version="1.1"
   id="svg1"
   inkscape:version="1.3.2 (091e20e, 2023-11-25, custom)"
   sodipodi:docname="guardian.svg"
   xmlns:inkscape="http://www.inkscape.org/namespaces/inkscape"
   xmlns:sodipodi="http://sodipodi.sourceforge.net/DTD/sodipodi-0.dtd"
   xmlns="http://www.w3.org/2000/svg"
   xmlns:svg="http://www.w3.org/2000/svg">
  <sodipodi:namedview
     id="namedview1"
     pagecolor="#ffffff"
     bordercolor="#000000"
     borderopacity="0.25"
     inkscape:showpageshadow="2"
     inkscape:pageopacity="0.0"
     inkscape:pagecheckerboard="0"
     inkscape:deskcolor="#d1d1d1"
     inkscape:document-units="mm"
     inkscape:zoom="0.51024183"
     inkscape:cx="204.80485"
     inkscape:cy="501.72288"
     inkscape:window-width="1920"
     inkscape:window-height="1009"
     inkscape:window-x="2552"
     inkscape:window-y="-8"
     inkscape:window-maximized="1"
     inkscape:current-layer="layer1" />
  <defs
     id="defs1" />
  <g
     inkscape:label="图层 1"
     inkscape:groupmode="layer"
     id="layer1">
    <path
       id="rect3-0"
       style="stroke-width:0.607153"
       d="m 105.41254,124.77531 67.06514,-79.925121 5.80102,4.867632 -67.06514,79.925119 z m 5.9548,68.76059 27.00384,100.77971 -7.31465,1.95996 -27.00385,-100.77971 z m -36.754458,97.78697 27.003838,-100.77969 7.31466,1.95995 -27.003841,100.77972 z M 41.596428,46.222248 108.66157,126.14737 102.86055,131.01501 35.79541,51.089879 Z m 59.239992,6.636465 h 10.09692 V 202.6297 h -10.09692 z m 48.2281,-6.578311 A 43.026649,43.026649 0 0 1 106.03788,89.307048 43.026649,43.026649 0 0 1 63.011234,46.2804 43.026649,43.026649 0 0 1 106.03788,3.2537529 43.026649,43.026649 0 0 1 149.06452,46.280402 Z" />
  </g>
</svg>
